{"title":"Chicago - The Very Best Of; Only The Beginning","uid":5055445,"size":1101993489,"categoryP":"audio","categoryS":"flac","magnet":"?xt=urn:btih:ffd07ee1fd341d3bebb48c66efdf04dfee906f4e&amp;dn=Chicago+-+The+Very+Best+Of%3B+Only+The+Beginning&amp;tr=udp%3A%2F%2Ftracker.openbittorrent.com%3A80&amp;tr=udp%3A%2F%2Fopen.demonii.com%3A1337&amp;tr=udp%3A%2F%2Ftracker.coppersurfer.tk%3A6969&amp;tr=udp%3A%2F%2Fexodus.desync.com%3A6969","seeders":1,"leechers":0,"uploader":"sowingmyseed","files":43,"time":1250385026,"description":"Exact Audio Copy V0.99 prebeta 4 from 23. January 2008\n\nEAC extraction logfile from 15. August 2009, 15:31\n\nChicago / The Very Best Of: Only The Beginning [Disc 1]\n\nUsed drive  : ATAPI   DVD D  DH16D3P   Adapter: 0  ID: 1\n\nRead mode               : Secure\nUtilize accurate stream : Yes\nDefeat audio cache      : No\nMake use of C2 pointers : No\n\nRead offset correction                      : 6\nOverread into Lead-In and Lead-Out          : No\nFill up missing offset samples with silence : Yes\nDelete leading and trailing silent blocks   : No\nNull samples used in CRC calculations       : No\nUsed interface                              : Installed external ASPI interface\nGap handling                                : Not detected, thus appended to previous track\n\nUsed output format              : User Defined Encoder\nSelected bitrate                : 768 kBit/s\nQuality                         : High\nAdd ID3 tag                     : No\nCommand line compressor         : C:Program FilesExact Audio CopyFLACFLAC.EXE\nAdditional command line options : -6 -V -T &quot;ARTIST=%a&quot; -T &quot;TITLE=%t&quot; -T &quot;ALBUM=%g&quot; -T &quot;DATE=%y&quot; -T &quot;TRACKNUMBER=%n&quot; -T &quot;GENRE=%m&quot; -T &quot;COMMENT=%e&quot; %s -o %d\n\n\nTOC of the extracted CD\n\n     Track |   Start  |  Length  | Start sector | End sector \n    ---------------------------------------------------------\n        1  |  0:00.00 |  4:25.55 |         0    |    19929   \n        2  |  4:25.55 |  4:49.62 |     19930    |    41666   \n        3  |  9:15.42 |  3:19.73 |     41667    |    56664   \n        4  | 12:35.40 |  6:27.37 |     56665    |    85726   \n        5  | 19:03.02 |  4:52.23 |     85727    |   107649   \n        6  | 23:55.25 |  5:43.62 |    107650    |   133436   \n        7  | 29:39.12 |  3:01.33 |    133437    |   147044   \n        8  | 32:40.45 |  2:16.50 |    147045    |   157294   \n        9  | 34:57.20 |  3:34.00 |    157295    |   173344   \n       10  | 38:31.20 |  3:55.32 |    173345    |   191001   \n       11  | 42:26.52 |  5:01.63 |    191002    |   213639   \n       12  | 47:28.40 |  3:42.25 |    213640    |   230314   \n       13  | 51:10.65 |  4:14.00 |    230315    |   249364   \n       14  | 55:24.65 |  4:28.42 |    249365    |   269506   \n       15  | 59:53.32 |  4:35.60 |    269507    |   290191   \n       16  | 64:29.17 |  4:03.40 |    290192    |   308456   \n       17  | 68:32.57 |  3:16.25 |    308457    |   323181   \n       18  | 71:49.07 |  3:01.38 |    323182    |   336794   \n       19  | 74:50.45 |  3:56.55 |    336795    |   354549   \n\n\nTrack  1\n\n     Filename E:MusicChicagoThe Very Best Of; Only The Beginning [Disc 1]Chicago - The Very Best Of- Only The Beginning [Disc 1] - 01. Make Me Smile (New Edit).wav\n\n     Peak level 97.7 %\n     Track quality 100.0 %\n     Test CRC 7CC157DB\n     Copy CRC 7CC157DB\n     Accurately ripped (confidence 31)  [3ADE8BA8]\n     Copy OK\n\nTrack  2\n\n     Filename E:MusicChicagoThe Very Best Of; Only The Beginning [Disc 1]Chicago - The Very Best Of- Only The Beginning [Disc 1] - 02. 25 Or 6 To 4.wav\n\n     Peak level 97.7 %\n     Track quality 100.0 %\n     Test CRC DBA0F3DF\n     Copy CRC DBA0F3DF\n     Accurately ripped (confidence 30)  [C57C8207]\n     Copy OK\n\nTrack  3\n\n     Filename E:MusicChicagoThe Very Best Of; Only The Beginning [Disc 1]Chicago - The Very Best Of- Only The Beginning [Disc 1] - 03. Does Anybody Really Know What Time It Is .wav\n\n     Peak level 97.7 %\n     Track quality 100.0 %\n     Test CRC 6D680456\n     Copy CRC 6D680456\n     Accurately ripped (confidence 32)  [5E8940C7]\n     Copy OK\n\nTrack  4\n\n     Filename E:MusicChicagoThe Very Best Of; Only The Beginning [Disc 1]Chicago - The Very Best Of- Only The Beginning [Disc 1] - 04. Beginnings.wav\n\n     Peak level 97.7 %\n     Track quality 99.9 %\n     Test CRC F143CC71\n     Copy CRC F143CC71\n     Accurately ripped (confidence 30)  [0256DAE3]\n     Copy OK\n\nTrack  5\n\n     Filename E:MusicChicagoThe Very Best Of; Only The Beginning [Disc 1]Chicago - The Very Best Of- Only The Beginning [Disc 1] - 05. Questions 67 And 68.wav\n\n     Peak level 97.7 %\n     Track quality 100.0 %\n     Test CRC B5249749\n     Copy CRC B5249749\n     Accurately ripped (confidence 31)  [BC068CE2]\n     Copy OK\n\nTrack  6\n\n     Filename E:MusicChicagoThe Very Best Of; Only The Beginning [Disc 1]Chicago - The Very Best Of- Only The Beginning [Disc 1] - 06. I'm A Man (New Edit).wav\n\n     Peak level 97.7 %\n     Track quality 100.0 %\n     Test CRC 4FEA5737\n     Copy CRC 4FEA5737\n     Accurately ripped (confidence 30)  [E215A18D]\n     Copy OK\n\nTrack  7\n\n     Filename E:MusicChicagoThe Very Best Of; Only The Beginning [Disc 1]Chicago - The Very Best Of- Only The Beginning [Disc 1] - 07. Colour My World.wav\n\n     Peak level 97.7 %\n     Track quality 100.0 %\n     Test CRC A1406C5D\n     Copy CRC A1406C5D\n     Accurately ripped (confidence 30)  [1472CE0C]\n     Copy OK\n\nTrack  8\n\n     Filename E:MusicChicagoThe Very Best Of; Only The Beginning [Disc 1]Chicago - The Very Best Of- Only The Beginning [Disc 1] - 08. Free.wav\n\n     Peak level 97.7 %\n     Track quality 100.0 %\n     Test CRC A3C9682E\n     Copy CRC A3C9682E\n     Accurately ripped (confidence 31)  [D27D913E]\n     Copy OK\n\nTrack  9\n\n     Filename E:MusicChicagoThe Very Best Of; Only The Beginning [Disc 1]Chicago - The Very Best Of- Only The Beginning [Disc 1] - 09. Lowdown.wav\n\n     Peak level 97.7 %\n     Track quality 100.0 %\n     Test CRC 5EDB39F2\n     Copy CRC 5EDB39F2\n     Accurately ripped (confidence 32)  [944D3C9C]\n     Copy OK\n\nTrack 10\n\n     Filename E:MusicChicagoThe Very Best Of; Only The Beginning [Disc 1]Chicago - The Very Best Of- Only The Beginning [Disc 1] - 10. Saturday In The Park.wav\n\n     Peak level 97.7 %\n     Track quality 99.9 %\n     Test CRC BB0CD864\n     Copy CRC BB0CD864\n     Accurately ripped (confidence 31)  [F12A6A57]\n     Copy OK\n\nTrack 11\n\n     Filename E:MusicChicagoThe Very Best Of; Only The Beginning [Disc 1]Chicago - The Very Best Of- Only The Beginning [Disc 1] - 11. Dialogue (Part I &amp; II) (Single Version).wav\n\n     Peak level 100.0 %\n     Track quality 99.9 %\n     Test CRC 70AF87DB\n     Copy CRC 70AF87DB\n     Accurately ripped (confidence 30)  [49F92D30]\n     Copy OK\n\nTrack 12\n\n     Filename E:MusicChicagoThe Very Best Of; Only The Beginning [Disc 1]Chicago - The Very Best Of- Only The Beginning [Disc 1] - 12. Just You 'N' Me.wav\n\n     Peak level 97.7 %\n     Track quality 100.0 %\n     Test CRC 68A326AE\n     Copy CRC 68A326AE\n     Accurately ripped (confidence 31)  [811B51AA]\n     Copy OK\n\nTrack 13\n\n     Filename E:MusicChicagoThe Very Best Of; Only The Beginning [Disc 1]Chicago - The Very Best Of- Only The Beginning [Disc 1] - 13. Feelin' Stronger Every Day.wav\n\n     Peak level 97.7 %\n     Track quality 99.9 %\n     Test CRC 52D753B1\n     Copy CRC 52D753B1\n     Accurately ripped (confidence 30)  [96150032]\n     Copy OK\n\nTrack 14\n\n     Filename E:MusicChicagoThe Very Best Of; Only The Beginning [Disc 1]Chicago - The Very Best Of- Only The Beginning [Disc 1] - 14. (I've Been) Searchin' So Long.wav\n\n     Peak level 97.7 %\n     Track quality 100.0 %\n     Test CRC 3EB6E768\n     Copy CRC 3EB6E768\n     Accurately ripped (confidence 31)  [4C0FD189]\n     Copy OK\n\nTrack 15\n\n     Filename E:MusicChicagoThe Very Best Of; Only The Beginning [Disc 1]Chicago - The Very Best Of- Only The Beginning [Disc 1] - 15. Wishing You Were Here.wav\n\n     Peak level 97.7 %\n     Track quality 100.0 %\n     Test CRC 87FB37DB\n     Copy CRC 87FB37DB\n     Accurately ripped (confidence 32)  [09268920]\n     Copy OK\n\nTrack 16\n\n     Filename E:MusicChicagoThe Very Best Of; Only The Beginning [Disc 1]Chicago - The Very Best Of- Only The Beginning [Disc 1] - 16. Call On Me.wav\n\n     Peak level 97.7 %\n     Track quality 100.0 %\n     Test CRC 067C458D\n     Copy CRC 067C458D\n     Accurately ripped (confidence 30)  [82823F56]\n     Copy OK\n\nTrack 17\n\n     Filename E:MusicChicagoThe Very Best Of; Only The Beginning [Disc 1]Chicago - The Very Best Of- Only The Beginning [Disc 1] - 17. Happy Man (Edit from 1981's Greatest Hits, Volume II).wav\n\n     Peak level 97.7 %\n     Track quality 100.0 %\n     Test CRC 1B06000C\n     Copy CRC 1B06000C\n     Accurately ripped (confidence 31)  [D242BF2D]\n     Copy OK\n\nTrack 18\n\n     Filename E:MusicChicagoThe Very Best Of; Only The Beginning [Disc 1]Chicago - The Very Best Of- Only The Beginning [Disc 1] - 18. Another Rainy Day In New York City.wav\n\n     Peak level 97.7 %\n     Track quality 100.0 %\n     Test CRC 54C08D2B\n     Copy CRC 54C08D2B\n     Accurately ripped (confidence 28)  [706D053B]\n     Copy OK\n\nTrack 19\n\n     Filename E:MusicChicagoThe Very Best Of; Only The Beginning [Disc 1]Chicago - The Very Best Of- Only The Beginning [Disc 1] - 19. If You Leave Me Now.wav\n\n     Peak level 97.7 %\n     Track quality 100.0 %\n     Test CRC 32760F5F\n     Copy CRC 32760F5F\n     Accurately ripped (confidence 29)  [928FAC8C]\n     Copy OK\n\n\nAll tracks accurately ripped\n\nNo errors occurred\n\nEnd of status report\n\n\nExact Audio Copy V0.99 prebeta 4 from 23. January 2008\n\nEAC extraction logfile from 15. August 2009, 15:47\n\nChicago / The Very Best Of; Only The Beginning [Disc 2]\n\nUsed drive  : ATAPI   DVD D  DH16D3P   Adapter: 0  ID: 1\n\nRead mode               : Secure\nUtilize accurate stream : Yes\nDefeat audio cache      : No\nMake use of C2 pointers : No\n\nRead offset correction                      : 6\nOverread into Lead-In and Lead-Out          : No\nFill up missing offset samples with silence : Yes\nDelete leading and trailing silent blocks   : No\nNull samples used in CRC calculations       : No\nUsed interface                              : Installed external ASPI interface\nGap handling                                : Not detected, thus appended to previous track\n\nUsed output format              : User Defined Encoder\nSelected bitrate                : 768 kBit/s\nQuality                         : High\nAdd ID3 tag                     : No\nCommand line compressor         : C:Program FilesExact Audio CopyFLACFLAC.EXE\nAdditional command line options : -6 -V -T &quot;ARTIST=%a&quot; -T &quot;TITLE=%t&quot; -T &quot;ALBUM=%g&quot; -T &quot;DATE=%y&quot; -T &quot;TRACKNUMBER=%n&quot; -T &quot;GENRE=%m&quot; -T &quot;COMMENT=%e&quot; %s -o %d\n\n\nTOC of the extracted CD\n\n     Track |   Start  |  Length  | Start sector | End sector \n    ---------------------------------------------------------\n        1  |  0:00.00 |  3:30.55 |         0    |    15804   \n        2  |  3:30.55 |  3:05.32 |     15805    |    29711   \n        3  |  6:36.12 |  2:58.23 |     29712    |    43084   \n        4  |  9:34.35 |  4:05.55 |     43085    |    61514   \n        5  | 13:40.15 |  4:14.00 |     61515    |    80564   \n        6  | 17:54.15 |  3:59.10 |     80565    |    98499   \n        7  | 21:53.25 |  5:06.10 |     98500    |   121459   \n        8  | 26:59.35 |  3:49.67 |    121460    |   138701   \n        9  | 30:49.27 |  4:44.70 |    138702    |   160071   \n       10  | 35:34.22 |  3:50.53 |    160072    |   177374   \n       11  | 39:25.00 |  3:48.52 |    177375    |   194526   \n       12  | 43:13.52 |  4:13.38 |    194527    |   213539   \n       13  | 47:27.15 |  3:52.10 |    213540    |   230949   \n       14  | 51:19.25 |  4:01.45 |    230950    |   249069   \n       15  | 55:20.70 |  4:14.27 |    249070    |   268146   \n       16  | 59:35.22 |  3:57.15 |    268147    |   285936   \n       17  | 63:32.37 |  3:45.35 |    285937    |   302846   \n       18  | 67:17.72 |  4:00.50 |    302847    |   320896   \n       19  | 71:18.47 |  4:18.65 |    320897    |   340311   \n       20  | 75:37.37 |  3:20.18 |    340312    |   355329   \n\n\nTrack  1\n\n     Filename E:MusicChicagoThe Very Best Of; Only The Beginning [Disc 2]Chicago - The Very Best Of; Only The Beginning [Disc 2] - 01. Old Days.wav\n\n     Peak level 98.8 %\n     Track quality 100.0 %\n     Test CRC F266D6FD\n     Copy CRC F266D6FD\n     Accurately ripped (confidence 31)  [7E13EA1B]\n     Copy OK\n\nTrack  2\n\n     Filename E:MusicChicagoThe Very Best Of; Only The Beginning [Disc 2]Chicago - The Very Best Of; Only The Beginning [Disc 2] - 02. Baby What A Big Surprise.wav\n\n     Peak level 98.8 %\n     Track quality 100.0 %\n     Test CRC 6B4638B1\n     Copy CRC 6B4638B1\n     Accurately ripped (confidence 31)  [A83085BC]\n     Copy OK\n\nTrack  3\n\n     Filename E:MusicChicagoThe Very Best Of; Only The Beginning [Disc 2]Chicago - The Very Best Of; Only The Beginning [Disc 2] - 03. Take Me Back To Chicago (Single Version).wav\n\n     Peak level 98.8 %\n     Track quality 99.9 %\n     Test CRC 317C6C5A\n     Copy CRC 317C6C5A\n     Accurately ripped (confidence 30)  [57C5308C]\n     Copy OK\n\nTrack  4\n\n     Filename E:MusicChicagoThe Very Best Of; Only The Beginning [Disc 2]Chicago - The Very Best Of; Only The Beginning [Disc 2] - 04. Alive Again.wav\n\n     Peak level 98.8 %\n     Track quality 99.9 %\n     Test CRC A2722B1A\n     Copy CRC A2722B1A\n     Accurately ripped (confidence 31)  [AC377C3F]\n     Copy OK\n\nTrack  5\n\n     Filename E:MusicChicagoThe Very Best Of; Only The Beginning [Disc 2]Chicago - The Very Best Of; Only The Beginning [Disc 2] - 05. No Tell Lover.wav\n\n     Peak level 98.8 %\n     Track quality 99.9 %\n     Test CRC 5FBF2322\n     Copy CRC 5FBF2322\n     Accurately ripped (confidence 31)  [96CFF95B]\n     Copy OK\n\nTrack  6\n\n     Filename E:MusicChicagoThe Very Best Of; Only The Beginning [Disc 2]Chicago - The Very Best Of; Only The Beginning [Disc 2] - 06. Love Me Tomorrow (Single Version).wav\n\n     Peak level 98.8 %\n     Track quality 100.0 %\n     Test CRC 165ECA95\n     Copy CRC 165ECA95\n     Accurately ripped (confidence 29)  [CEFC77CA]\n     Copy OK\n\nTrack  7\n\n     Filename E:MusicChicagoThe Very Best Of; Only The Beginning [Disc 2]Chicago - The Very Best Of; Only The Beginning [Disc 2] - 07. Hard To Say I'm Sorry,Get Away.wav\n\n     Peak level 98.8 %\n     Track quality 100.0 %\n     Test CRC 602B80BC\n     Copy CRC 602B80BC\n     Accurately ripped (confidence 30)  [5D136B7A]\n     Copy OK\n\nTrack  8\n\n     Filename E:MusicChicagoThe Very Best Of; Only The Beginning [Disc 2]Chicago - The Very Best Of; Only The Beginning [Disc 2] - 08. Stay The Night.wav\n\n     Peak level 98.8 %\n     Track quality 100.0 %\n     Test CRC CD0DFB7F\n     Copy CRC CD0DFB7F\n     Accurately ripped (confidence 29)  [20A4CB17]\n     Copy OK\n\nTrack  9\n\n     Filename E:MusicChicagoThe Very Best Of; Only The Beginning [Disc 2]Chicago - The Very Best Of; Only The Beginning [Disc 2] - 09. Hard Habit To Break.wav\n\n     Peak level 98.8 %\n     Track quality 99.9 %\n     Test CRC F0358492\n     Copy CRC F0358492\n     Accurately ripped (confidence 30)  [D03ED486]\n     Copy OK\n\nTrack 10\n\n     Filename E:MusicChicagoThe Very Best Of; Only The Beginning [Disc 2]Chicago - The Very Best Of; Only The Beginning [Disc 2] - 10. You're The Inspiration.wav\n\n     Peak level 98.8 %\n     Track quality 100.0 %\n     Test CRC 2E251330\n     Copy CRC 2E251330\n     Accurately ripped (confidence 30)  [D97372D8]\n     Copy OK\n\nTrack 11\n\n     Filename E:MusicChicagoThe Very Best Of; Only The Beginning [Disc 2]Chicago - The Very Best Of; Only The Beginning [Disc 2] - 11. Along Comes A Woman (Single Version).wav\n\n     Peak level 98.8 %\n     Track quality 100.0 %\n     Test CRC B6EF3B5C\n     Copy CRC B6EF3B5C\n     Accurately ripped (confidence 29)  [80DF78D0]\n     Copy OK\n\nTrack 12\n\n     Filename E:MusicChicagoThe Very Best Of; Only The Beginning [Disc 2]Chicago - The Very Best Of; Only The Beginning [Disc 2] - 12. Will You Still Love Me  (Single Version).wav\n\n     Peak level 98.8 %\n     Track quality 100.0 %\n     Test CRC 6FE9BC6C\n     Copy CRC 6FE9BC6C\n     Accurately ripped (confidence 29)  [D1B94AFD]\n     Copy OK\n\nTrack 13\n\n     Filename E:MusicChicagoThe Very Best Of; Only The Beginning [Disc 2]Chicago - The Very Best Of; Only The Beginning [Disc 2] - 13. If She Would Have Been Faithful....wav\n\n     Peak level 98.8 %\n     Track quality 100.0 %\n     Test CRC ECF383DC\n     Copy CRC ECF383DC\n     Accurately ripped (confidence 29)  [1377E6F0]\n     Copy OK\n\nTrack 14\n\n     Filename E:MusicChicagoThe Very Best Of; Only The Beginning [Disc 2]Chicago - The Very Best Of; Only The Beginning [Disc 2] - 14. Look Away (Single Version).wav\n\n     Peak level 98.8 %\n     Track quality 100.0 %\n     Test CRC 61E74316\n     Copy CRC 61E74316\n     Accurately ripped (confidence 29)  [786AF1A4]\n     Copy OK\n\nTrack 15\n\n     Filename E:MusicChicagoThe Very Best Of; Only The Beginning [Disc 2]Chicago - The Very Best Of; Only The Beginning [Disc 2] - 15. What Kind Of Man Would I Be  (Single Version).wav\n\n     Peak level 98.8 %\n     Track quality 99.9 %\n     Test CRC 635D8FB7\n     Copy CRC 635D8FB7\n     Accurately ripped (confidence 30)  [CA122D26]\n     Copy OK\n\nTrack 16\n\n     Filename E:MusicChicagoThe Very Best Of; Only The Beginning [Disc 2]Chicago - The Very Best Of; Only The Beginning [Disc 2] - 16. I Don't Wanna Live Without Your Love.wav\n\n     Peak level 98.8 %\n     Track quality 100.0 %\n     Test CRC F354223C\n     Copy CRC F354223C\n     Accurately ripped (confidence 31)  [F6D9B89E]\n     Copy OK\n\nTrack 17\n\n     Filename E:MusicChicagoThe Very Best Of; Only The Beginning [Disc 2]Chicago - The Very Best Of; Only The Beginning [Disc 2] - 17. We Can Last Forever (Single Version).wav\n\n     Peak level 98.8 %\n     Track quality 99.9 %\n     Test CRC E16835D1\n     Copy CRC E16835D1\n     Accurately ripped (confidence 29)  [C316BB43]\n     Copy OK\n\nTrack 18\n\n     Filename E:MusicChicagoThe Very Best Of; Only The Beginning [Disc 2]Chicago - The Very Best Of; Only The Beginning [Disc 2] - 18. You're Not Alone (Single Version).wav\n\n     Peak level 98.8 %\n     Track quality 100.0 %\n     Test CRC 491F921D\n     Copy CRC 491F921D\n     Accurately ripped (confidence 28)  [96694CBE]\n     Copy OK\n\nTrack 19\n\n     Filename E:MusicChicagoThe Very Best Of; Only The Beginning [Disc 2]Chicago - The Very Best Of; Only The Beginning [Disc 2] - 19. Chasin' The Wind.wav\n\n     Peak level 98.8 %\n     Track quality 100.0 %\n     Test CRC 0BB7F097\n     Copy CRC 0BB7F097\n     Accurately ripped (confidence 29)  [A89E2E38]\n     Copy OK\n\nTrack 20\n\n     Filename E:MusicChicagoThe Very Best Of; Only The Beginning [Disc 2]Chicago - The Very Best Of; Only The Beginning [Disc 2] - 20. Sing, Sing, Sing (w, The Gypsy Kings).wav\n\n     Peak level 98.8 %\n     Track quality 99.9 %\n     Test CRC 778AD7CF\n     Copy CRC 778AD7CF\n     Accurately ripped (confidence 28)  [384118EB]\n     Copy OK\n\n\nAll tracks accurately ripped\n\nNo errors occurred\n\nEnd of status report\n","torrent":{"xt":"urn:btih:ffd07ee1fd341d3bebb48c66efdf04dfee906f4e","amp;dn":"Chicago+-+The+Very+Best+Of%3B+Only+The+Beginning","amp;tr":["udp%3A%2F%2Ftracker.openbittorrent.com%3A80","udp%3A%2F%2Fopen.demonii.com%3A1337","udp%3A%2F%2Ftracker.coppersurfer.tk%3A6969","udp%3A%2F%2Fexodus.desync.com%3A6969"],"infoHash":"ffd07ee1fd341d3bebb48c66efdf04dfee906f4e","infoHashBuffer":{"type":"Buffer","data":[255,208,126,225,253,52,29,59,235,180,140,102,239,223,4,223,238,144,111,78]},"announce":[],"urlList":[]}}